<svg xmlns="http://www.w3.org/2000/svg" style="display: none;">
    <!-- Icono menú hamburguesa -->
    <symbol id="menu" viewBox="0 0 24 24">
        <line x1="3" y1="6" x2="21" y2="6" stroke="currentColor" stroke-width="1.5" stroke-linecap="round"/>
        <line x1="3" y1="12" x2="21" y2="12" stroke="currentColor" stroke-width="1.5" stroke-linecap="round"/>
        <line x1="3" y1="18" x2="21" y2="18" stroke="currentColor" stroke-width="1.5" stroke-linecap="round"/>
    </symbol>
    
    <!-- Icono cerrar (X) -->
    <symbol id="close" viewBox="0 0 24 24">
        <line x1="6" y1="6" x2="18" y2="18" stroke="currentColor" stroke-width="1.5" stroke-linecap="round"/>
        <line x1="18" y1="6" x2="6" y2="18" stroke="currentColor" stroke-width="1.5" stroke-linecap="round"/>
    </symbol>
    
    <!-- Icono flecha izquierda -->
    <symbol id="arrow-left" viewBox="0 0 24 24">
        <path stroke="currentColor" stroke-width="2" stroke-linecap="round" stroke-linejoin="round" d="M15 19l-7-7 7-7"/>
    </symbol>
    
    <!-- Icono flecha derecha -->
    <symbol id="arrow-right" viewBox="0 0 24 24">
        <path stroke="currentColor" stroke-width="2" stroke-linecap="round" stroke-linejoin="round" d="M9 5l7 7-7 7"/>
    </symbol>
    
    <!-- Icono GitHub -->
    <symbol id="github" viewBox="0 0 24 24">
        <path stroke="currentColor" stroke-width="1.5" fill="none" d="M12 2C6.477 2 2 6.484 2 12.017c0 4.425 2.865 8.18 6.839 9.504.5.092.682-.217.682-.483 0-.237-.008-.868-.013-1.703-2.782.605-3.369-1.343-3.369-1.343-.454-1.158-1.11-1.466-1.11-1.466-.908-.62.069-.608.069-.608 1.003.07 1.531 1.032 1.531 1.032.892 1.53 2.341 1.088 2.91.832.092-.647.35-1.088.636-1.338-2.22-.253-4.555-1.113-4.555-4.951 0-1.093.39-1.988 1.03-2.688-.103-.253-.447-1.272.098-2.65 0 0 .84-.27 2.75 1.026A9.564 9.564 0 0112 6.844c.85.004 1.705.115 2.504.337 1.909-1.296 2.747-1.027 2.747-1.027.546 1.379.202 2.398.1 2.651.64.7 1.028 1.595 1.028 2.688 0 3.848-2.339 4.695-4.566 4.943.359.309.678.92.678 1.855 0 1.338-.012 2.419-.012 2.747 0 .268.18.58.688.482A10.019 10.019 0 0022 12.017C22 6.484 17.522 2 12 2z"/>
    </symbol>
    
    <!-- Icono Figma -->
    <symbol id="figma" viewBox="0 0 24 24">
        <path stroke="currentColor" stroke-width="1.5" fill="none" d="M12 12a4 4 0 114 4 4 4 0 01-4-4z"/>
        <path stroke="currentColor" stroke-width="1.5" fill="none" d="M12 4h4a4 4 0 010 8h-4V4z"/>
        <path stroke="currentColor" stroke-width="1.5" fill="none" d="M4 20a4 4 0 014-4h4v4a4 4 0 01-8 0z"/>
        <path stroke="currentColor" stroke-width="1.5" fill="none" d="M4 12a4 4 0 014-4h4v8H8a4 4 0 01-4-4z"/>
        <path stroke="currentColor" stroke-width="1.5" fill="none" d="M4 4a4 4 0 014-4h4v8H8a4 4 0 01-4-4z"/>
    </symbol>
    
    <!-- Icono LinkedIn -->
    <symbol id="linkedin" viewBox="0 0 24 24">
        <path stroke="currentColor" stroke-width="1.5" fill="none" d="M16 8a6 6 0 016 6v7h-4v-7a2 2 0 00-4 0v7h-4v-7a6 6 0 016-6z"/>
        <rect x="2" y="9" width="4" height="12" stroke="currentColor" stroke-width="1.5" fill="none"/>
        <circle cx="4" cy="4" r="2" stroke="currentColor" stroke-width="1.5" fill="none"/>
    </symbol>
    
    <!-- Icono play -->
    <symbol id="play" viewBox="0 0 24 24">
        <path stroke="currentColor" stroke-width="1.5" fill="none" d="M14.752 11.168l-3.197-2.132A1 1 0 0010 9.87v4.263a1 1 0 001.555.832l3.197-2.132a1 1 0 000-1.664z"/>
        <circle cx="12" cy="12" r="10" stroke="currentColor" stroke-width="1.5" fill="none"/>
    </symbol>
    
    <!-- Icono pausa -->
    <symbol id="pause" viewBox="0 0 24 24">
        <circle cx="12" cy="12" r="10" stroke="currentColor" stroke-width="1.5" fill="none"/>
        <line x1="10" y1="9" x2="10" y2="15" stroke="currentColor" stroke-width="1.5" stroke-linecap="round"/>
        <line x1="14" y1="9" x2="14" y2="15" stroke="currentColor" stroke-width="1.5" stroke-linecap="round"/>
    </symbol>
    
    <!-- Icono scroll down (flecha doble) -->
    <symbol id="scroll-down" viewBox="0 0 24 24">
        <path stroke="currentColor" stroke-width="1.5" stroke-linecap="round" d="M7 13l5 5 5-5M7 6l5 5 5-5"/>
    </symbol>
</svg>